<svg aria-hidden="true" style="position: absolute; width: 0; height: 0; overflow: hidden;" version="1.1" xmlns="http://www.w3.org/2000/svg" xmlns:xlink="http://www.w3.org/1999/xlink">
<defs>
<symbol id="icon-bulb" viewBox="0 0 32 32">
<path d="M16 0c-6.076 0-11 4.924-11 11 0 4.031 3.688 8.303 5.031 12.055 2.003 5.595 1.781 8.945 5.969 8.945 4.25 0 3.965-3.334 5.969-8.922 1.347-3.76 5.031-8.078 5.031-12.078 0-6.076-4.926-11-11-11zM18.592 27.176l-4.958 0.619c-0.177-0.512-0.367-1.111-0.598-1.893-0.003-0.010-0.007-0.021-0.009-0.031l6.188-0.773c-0.088 0.295-0.182 0.605-0.264 0.883-0.131 0.449-0.248 0.839-0.359 1.195zM12.736 24.908c-0.182-0.602-0.387-1.236-0.615-1.908h7.766c-0.123 0.359-0.246 0.719-0.352 1.059l-6.799 0.849zM16 30c-1.013 0-1.479-0.117-1.997-1.25l4.238-0.531c-0.614 1.654-1.061 1.781-2.241 1.781zM20.672 21h-9.333c-0.498-1.080-1.096-2.16-1.686-3.217-1.305-2.335-2.653-4.75-2.653-6.783 0-4.963 4.037-9 9-9s9 4.037 9 9c0 2.018-1.35 4.446-2.656 6.795-0.584 1.053-1.178 2.131-1.672 3.205zM16 5c0.275 0 0.5 0.224 0.5 0.5s-0.224 0.5-0.5 0.5c-2.757 0-5 2.243-5 5 0 0.276-0.224 0.5-0.5 0.5s-0.5-0.224-0.5-0.5c0-3.309 2.691-6 6-6z"></path>
</symbol>
<symbol id="icon-note" viewBox="0 0 32 32">
<path d="M31.414 7.585l-6-6c-0.375-0.375-0.885-0.585-1.414-0.585h-21c-1.654 0-3 1.345-3 3v24c0 1.654 1.346 3 3 3h26c1.654 0 3-1.346 3-3v-19c0-0.531-0.211-1.040-0.586-1.415zM30 28c0 0.553-0.447 1-1 1h-26c-0.553 0-1-0.447-1-1v-24c0-0.553 0.447-1 1-1h20v4h-0.002c0 1.657 1.344 3 3 3h4.002v18zM26.998 9h-1c-1.102 0-2-0.897-2-2h0.002v-4l6 6h-3.002zM15.5 8c-0.276 0-0.5-0.223-0.5-0.5s0.224-0.5 0.5-0.5h5c0.275 0 0.5 0.224 0.5 0.5s-0.225 0.5-0.5 0.5h-5zM15.5 11c-0.276 0-0.5-0.224-0.5-0.5s0.224-0.5 0.5-0.5h5c0.275 0 0.5 0.224 0.5 0.5s-0.225 0.5-0.5 0.5h-5zM15 13.5c0-0.277 0.224-0.5 0.5-0.5h12c0.275 0 0.5 0.224 0.5 0.5s-0.225 0.5-0.5 0.5h-12c-0.276 0-0.5-0.224-0.5-0.5zM27.5 19c0.275 0 0.5 0.223 0.5 0.5 0 0.275-0.225 0.5-0.5 0.5h-23c-0.276 0-0.5-0.225-0.5-0.5 0-0.277 0.224-0.5 0.5-0.5h23zM27.5 22c0.275 0 0.5 0.223 0.5 0.5 0 0.275-0.225 0.5-0.5 0.5h-23c-0.276 0-0.5-0.225-0.5-0.5 0-0.277 0.224-0.5 0.5-0.5h23zM27.5 25c0.275 0 0.5 0.223 0.5 0.5 0 0.275-0.225 0.5-0.5 0.5h-23c-0.276 0-0.5-0.225-0.5-0.5 0-0.277 0.224-0.5 0.5-0.5h23zM27.5 16c0.275 0 0.5 0.224 0.5 0.5s-0.225 0.5-0.5 0.5h-23c-0.276 0-0.5-0.223-0.5-0.5s0.224-0.5 0.5-0.5h23zM5 14h7c0.553 0 1-0.447 1-1v-6c0-0.553-0.447-1-1-1h-7c-0.553 0-1 0.447-1 1v6c0 0.552 0.447 1 1 1zM6 8h5v4h-5v-4z"></path>
</symbol>
<symbol id="icon-bubble" viewBox="0 0 32 32">
<path d="M16 7c0.276 0 0.5 0.224 0.5 0.5s-0.225 0.5-0.5 0.5c-5.327 0-10 2.804-10 6 0 0.276-0.224 0.5-0.5 0.5s-0.5-0.224-0.5-0.5c0-3.794 5.037-7 11-7zM16 2c-8.837 0-16 5.373-16 12 0 4.127 2.779 7.766 7.008 9.926 0 0.027-0.008 0.045-0.008 0.074 0 1.793-1.339 3.723-1.928 4.736 0.001 0 0.002 0 0.002 0-0.047 0.11-0.074 0.231-0.074 0.358 0 0.5 0.405 0.906 0.906 0.906 0.094 0 0.259-0.025 0.255-0.014 3.125-0.512 6.069-3.383 6.753-4.215 0.999 0.147 2.029 0.229 3.086 0.229 8.835 0 16-5.373 16-12s-7.164-12-16-12zM16 24c-0.917 0-1.858-0.070-2.796-0.207-0.097-0.016-0.194-0.021-0.29-0.021-0.594 0-1.163 0.264-1.546 0.73-0.428 0.521-1.646 1.684-3.085 2.539 0.39-0.895 0.695-1.898 0.716-2.932 0.006-0.064 0.009-0.129 0.009-0.184 0-0.752-0.421-1.439-1.090-1.781-3.706-1.892-5.918-4.937-5.918-8.144 0-5.514 6.28-10 14-10 7.718 0 14 4.486 14 10s-6.281 10-14 10z"></path>
</symbol>
</defs>
</svg>
